<mxfile host="app.diagrams.net" modified="2023-11-11T01:31:38.543Z" agent="Mozilla/5.0 (Windows NT 10.0; Win64; x64) AppleWebKit/537.36 (KHTML, like Gecko) Chrome/119.0.0.0 Safari/537.36" etag="HAfOcEOsdhkTSX3o_RLq" version="22.1.0" type="github">
  <diagram id="C5RBs43oDa-KdzZeNtuy" name="Page-1">
    <mxGraphModel dx="1434" dy="796" grid="1" gridSize="10" guides="1" tooltips="1" connect="1" arrows="1" fold="1" page="1" pageScale="1" pageWidth="827" pageHeight="1169" math="0" shadow="0">
      <root>
        <mxCell id="WIyWlLk6GJQsqaUBKTNV-0" />
        <mxCell id="WIyWlLk6GJQsqaUBKTNV-1" parent="WIyWlLk6GJQsqaUBKTNV-0" />
        <mxCell id="8x2umwGvbLYaKxmgUbL3-10" style="edgeStyle=orthogonalEdgeStyle;rounded=0;orthogonalLoop=1;jettySize=auto;html=1;exitX=0.5;exitY=1;exitDx=0;exitDy=0;exitPerimeter=0;entryX=0.5;entryY=0;entryDx=0;entryDy=0;" edge="1" parent="WIyWlLk6GJQsqaUBKTNV-1" source="8x2umwGvbLYaKxmgUbL3-0" target="8x2umwGvbLYaKxmgUbL3-2">
          <mxGeometry relative="1" as="geometry" />
        </mxCell>
        <mxCell id="8x2umwGvbLYaKxmgUbL3-0" value="Inicio" style="strokeWidth=2;html=1;shape=mxgraph.flowchart.terminator;whiteSpace=wrap;" vertex="1" parent="WIyWlLk6GJQsqaUBKTNV-1">
          <mxGeometry x="170" y="60" width="100" height="60" as="geometry" />
        </mxCell>
        <mxCell id="8x2umwGvbLYaKxmgUbL3-1" value="Inicializar listas para cada tipo de ropa y estación" style="rounded=0;whiteSpace=wrap;html=1;" vertex="1" parent="WIyWlLk6GJQsqaUBKTNV-1">
          <mxGeometry x="160" y="170" width="120" height="60" as="geometry" />
        </mxCell>
        <mxCell id="8x2umwGvbLYaKxmgUbL3-34" style="edgeStyle=orthogonalEdgeStyle;rounded=0;orthogonalLoop=1;jettySize=auto;html=1;exitX=0.5;exitY=1;exitDx=0;exitDy=0;entryX=0.5;entryY=0;entryDx=0;entryDy=0;" edge="1" parent="WIyWlLk6GJQsqaUBKTNV-1" source="8x2umwGvbLYaKxmgUbL3-2" target="8x2umwGvbLYaKxmgUbL3-31">
          <mxGeometry relative="1" as="geometry" />
        </mxCell>
        <mxCell id="8x2umwGvbLYaKxmgUbL3-2" value="Definir matrizRopaEstacion,&amp;nbsp;&lt;br&gt;matrizRopaActividad" style="rounded=0;whiteSpace=wrap;html=1;" vertex="1" parent="WIyWlLk6GJQsqaUBKTNV-1">
          <mxGeometry x="125" y="150" width="195" height="90" as="geometry" />
        </mxCell>
        <mxCell id="8x2umwGvbLYaKxmgUbL3-18" style="edgeStyle=orthogonalEdgeStyle;rounded=0;orthogonalLoop=1;jettySize=auto;html=1;exitX=0.5;exitY=1;exitDx=0;exitDy=0;" edge="1" parent="WIyWlLk6GJQsqaUBKTNV-1" source="8x2umwGvbLYaKxmgUbL3-14">
          <mxGeometry relative="1" as="geometry">
            <mxPoint x="220" y="260" as="targetPoint" />
            <mxPoint x="200" y="574.5" as="sourcePoint" />
            <Array as="points">
              <mxPoint x="220" y="595" />
              <mxPoint x="10" y="595" />
              <mxPoint x="10" y="260" />
              <mxPoint x="220" y="260" />
            </Array>
          </mxGeometry>
        </mxCell>
        <mxCell id="8x2umwGvbLYaKxmgUbL3-14" value="matrizRopaEstacion [fila][columna]=prenda" style="rounded=0;whiteSpace=wrap;html=1;" vertex="1" parent="WIyWlLk6GJQsqaUBKTNV-1">
          <mxGeometry x="103.75" y="494.5" width="232.5" height="60" as="geometry" />
        </mxCell>
        <mxCell id="8x2umwGvbLYaKxmgUbL3-24" style="edgeStyle=orthogonalEdgeStyle;rounded=0;orthogonalLoop=1;jettySize=auto;html=1;exitX=1;exitY=0.5;exitDx=0;exitDy=0;entryX=0.5;entryY=0;entryDx=0;entryDy=0;" edge="1" parent="WIyWlLk6GJQsqaUBKTNV-1" source="8x2umwGvbLYaKxmgUbL3-19" target="8x2umwGvbLYaKxmgUbL3-26">
          <mxGeometry relative="1" as="geometry">
            <mxPoint x="360" y="630" as="targetPoint" />
            <Array as="points">
              <mxPoint x="360" y="415" />
              <mxPoint x="360" y="610" />
              <mxPoint x="223" y="610" />
            </Array>
          </mxGeometry>
        </mxCell>
        <mxCell id="8x2umwGvbLYaKxmgUbL3-25" value="SI" style="edgeLabel;html=1;align=center;verticalAlign=middle;resizable=0;points=[];" vertex="1" connectable="0" parent="8x2umwGvbLYaKxmgUbL3-24">
          <mxGeometry x="-0.2244" y="-1" relative="1" as="geometry">
            <mxPoint x="21" y="1" as="offset" />
          </mxGeometry>
        </mxCell>
        <mxCell id="8x2umwGvbLYaKxmgUbL3-37" style="edgeStyle=orthogonalEdgeStyle;rounded=0;orthogonalLoop=1;jettySize=auto;html=1;exitX=0.5;exitY=1;exitDx=0;exitDy=0;entryX=0.5;entryY=0;entryDx=0;entryDy=0;" edge="1" parent="WIyWlLk6GJQsqaUBKTNV-1" source="8x2umwGvbLYaKxmgUbL3-19" target="8x2umwGvbLYaKxmgUbL3-14">
          <mxGeometry relative="1" as="geometry" />
        </mxCell>
        <mxCell id="8x2umwGvbLYaKxmgUbL3-38" value="NO" style="edgeLabel;html=1;align=center;verticalAlign=middle;resizable=0;points=[];" vertex="1" connectable="0" parent="8x2umwGvbLYaKxmgUbL3-37">
          <mxGeometry x="-0.2653" y="1" relative="1" as="geometry">
            <mxPoint x="9" as="offset" />
          </mxGeometry>
        </mxCell>
        <mxCell id="8x2umwGvbLYaKxmgUbL3-19" value="El usuario ingreso todas las prendas?" style="rhombus;whiteSpace=wrap;html=1;" vertex="1" parent="WIyWlLk6GJQsqaUBKTNV-1">
          <mxGeometry x="160" y="360" width="120" height="110" as="geometry" />
        </mxCell>
        <mxCell id="8x2umwGvbLYaKxmgUbL3-28" style="edgeStyle=orthogonalEdgeStyle;rounded=0;orthogonalLoop=1;jettySize=auto;html=1;exitX=0.5;exitY=1;exitDx=0;exitDy=0;entryX=0.5;entryY=0;entryDx=0;entryDy=0;" edge="1" parent="WIyWlLk6GJQsqaUBKTNV-1" source="8x2umwGvbLYaKxmgUbL3-26" target="8x2umwGvbLYaKxmgUbL3-27">
          <mxGeometry relative="1" as="geometry" />
        </mxCell>
        <mxCell id="8x2umwGvbLYaKxmgUbL3-26" value="dia, actividad" style="shape=parallelogram;perimeter=parallelogramPerimeter;whiteSpace=wrap;html=1;fixedSize=1;" vertex="1" parent="WIyWlLk6GJQsqaUBKTNV-1">
          <mxGeometry x="122.5" y="630" width="200" height="60" as="geometry" />
        </mxCell>
        <mxCell id="8x2umwGvbLYaKxmgUbL3-29" style="edgeStyle=orthogonalEdgeStyle;rounded=0;orthogonalLoop=1;jettySize=auto;html=1;exitX=0.5;exitY=1;exitDx=0;exitDy=0;" edge="1" parent="WIyWlLk6GJQsqaUBKTNV-1" source="8x2umwGvbLYaKxmgUbL3-27">
          <mxGeometry relative="1" as="geometry">
            <mxPoint x="223" y="860" as="targetPoint" />
          </mxGeometry>
        </mxCell>
        <mxCell id="8x2umwGvbLYaKxmgUbL3-30" value="NO" style="edgeLabel;html=1;align=center;verticalAlign=middle;resizable=0;points=[];" vertex="1" connectable="0" parent="8x2umwGvbLYaKxmgUbL3-29">
          <mxGeometry x="-0.4007" y="-1" relative="1" as="geometry">
            <mxPoint x="8" as="offset" />
          </mxGeometry>
        </mxCell>
        <mxCell id="8x2umwGvbLYaKxmgUbL3-41" style="edgeStyle=orthogonalEdgeStyle;rounded=0;orthogonalLoop=1;jettySize=auto;html=1;exitX=1;exitY=0.5;exitDx=0;exitDy=0;entryX=0.5;entryY=0;entryDx=0;entryDy=0;" edge="1" parent="WIyWlLk6GJQsqaUBKTNV-1" source="8x2umwGvbLYaKxmgUbL3-27" target="8x2umwGvbLYaKxmgUbL3-43">
          <mxGeometry relative="1" as="geometry">
            <mxPoint x="360" y="1040" as="targetPoint" />
            <Array as="points">
              <mxPoint x="370" y="770" />
              <mxPoint x="370" y="1010" />
            </Array>
          </mxGeometry>
        </mxCell>
        <mxCell id="8x2umwGvbLYaKxmgUbL3-42" value="SI" style="edgeLabel;html=1;align=center;verticalAlign=middle;resizable=0;points=[];" vertex="1" connectable="0" parent="8x2umwGvbLYaKxmgUbL3-41">
          <mxGeometry x="-0.1402" y="-2" relative="1" as="geometry">
            <mxPoint x="12" y="7" as="offset" />
          </mxGeometry>
        </mxCell>
        <mxCell id="8x2umwGvbLYaKxmgUbL3-27" value="El usuario ingreso las actividades de todos los días?" style="rhombus;whiteSpace=wrap;html=1;" vertex="1" parent="WIyWlLk6GJQsqaUBKTNV-1">
          <mxGeometry x="142.5" y="710" width="160" height="120" as="geometry" />
        </mxCell>
        <mxCell id="8x2umwGvbLYaKxmgUbL3-36" style="edgeStyle=orthogonalEdgeStyle;rounded=0;orthogonalLoop=1;jettySize=auto;html=1;exitX=0.5;exitY=1;exitDx=0;exitDy=0;entryX=0.5;entryY=0;entryDx=0;entryDy=0;" edge="1" parent="WIyWlLk6GJQsqaUBKTNV-1" source="8x2umwGvbLYaKxmgUbL3-31" target="8x2umwGvbLYaKxmgUbL3-19">
          <mxGeometry relative="1" as="geometry" />
        </mxCell>
        <mxCell id="8x2umwGvbLYaKxmgUbL3-31" value="tipodePrenda,&lt;br&gt;descripcion,&lt;br&gt;estacion." style="shape=parallelogram;perimeter=parallelogramPerimeter;whiteSpace=wrap;html=1;fixedSize=1;" vertex="1" parent="WIyWlLk6GJQsqaUBKTNV-1">
          <mxGeometry x="122.5" y="280" width="200" height="60" as="geometry" />
        </mxCell>
        <mxCell id="8x2umwGvbLYaKxmgUbL3-39" value="matrizDiaActividad [fila][columna]=actividad" style="rounded=0;whiteSpace=wrap;html=1;" vertex="1" parent="WIyWlLk6GJQsqaUBKTNV-1">
          <mxGeometry x="110" y="860" width="232.5" height="60" as="geometry" />
        </mxCell>
        <mxCell id="8x2umwGvbLYaKxmgUbL3-40" style="edgeStyle=orthogonalEdgeStyle;rounded=0;orthogonalLoop=1;jettySize=auto;html=1;" edge="1" parent="WIyWlLk6GJQsqaUBKTNV-1">
          <mxGeometry relative="1" as="geometry">
            <mxPoint x="220" y="620" as="targetPoint" />
            <mxPoint x="220" y="920" as="sourcePoint" />
            <Array as="points">
              <mxPoint x="220" y="955" />
              <mxPoint x="10" y="955" />
              <mxPoint x="10" y="620" />
              <mxPoint x="220" y="620" />
            </Array>
          </mxGeometry>
        </mxCell>
        <mxCell id="8x2umwGvbLYaKxmgUbL3-44" style="edgeStyle=orthogonalEdgeStyle;rounded=0;orthogonalLoop=1;jettySize=auto;html=1;exitX=0.5;exitY=1;exitDx=0;exitDy=0;" edge="1" parent="WIyWlLk6GJQsqaUBKTNV-1" source="8x2umwGvbLYaKxmgUbL3-43">
          <mxGeometry relative="1" as="geometry">
            <mxPoint x="243" y="1120" as="targetPoint" />
          </mxGeometry>
        </mxCell>
        <mxCell id="8x2umwGvbLYaKxmgUbL3-43" value="Temperatura, &lt;br&gt;condicionesClimaticas" style="shape=parallelogram;perimeter=parallelogramPerimeter;whiteSpace=wrap;html=1;fixedSize=1;" vertex="1" parent="WIyWlLk6GJQsqaUBKTNV-1">
          <mxGeometry x="142.5" y="1030" width="200" height="60" as="geometry" />
        </mxCell>
        <mxCell id="8x2umwGvbLYaKxmgUbL3-49" style="edgeStyle=orthogonalEdgeStyle;rounded=0;orthogonalLoop=1;jettySize=auto;html=1;exitX=0.5;exitY=1;exitDx=0;exitDy=0;entryX=0.5;entryY=0;entryDx=0;entryDy=0;" edge="1" parent="WIyWlLk6GJQsqaUBKTNV-1" source="8x2umwGvbLYaKxmgUbL3-46" target="8x2umwGvbLYaKxmgUbL3-48">
          <mxGeometry relative="1" as="geometry" />
        </mxCell>
        <mxCell id="8x2umwGvbLYaKxmgUbL3-46" value="Seleccionar matrizRopaEstacion [fila][columna]=prenda" style="rounded=0;whiteSpace=wrap;html=1;" vertex="1" parent="WIyWlLk6GJQsqaUBKTNV-1">
          <mxGeometry x="128.75" y="1300" width="232.5" height="60" as="geometry" />
        </mxCell>
        <mxCell id="8x2umwGvbLYaKxmgUbL3-51" style="edgeStyle=orthogonalEdgeStyle;rounded=0;orthogonalLoop=1;jettySize=auto;html=1;exitX=0.5;exitY=1;exitDx=0;exitDy=0;entryX=0.5;entryY=0;entryDx=0;entryDy=0;" edge="1" parent="WIyWlLk6GJQsqaUBKTNV-1" source="8x2umwGvbLYaKxmgUbL3-48" target="8x2umwGvbLYaKxmgUbL3-50">
          <mxGeometry relative="1" as="geometry" />
        </mxCell>
        <mxCell id="8x2umwGvbLYaKxmgUbL3-48" value="ropaAdecuada= matrizRopaEstacion [fila][columna]+ &quot;,&quot;+matrizRopaEstacion [fila][columna]+&quot;,&quot;+matrizRopaEstacion [fila][columna]" style="rounded=0;whiteSpace=wrap;html=1;" vertex="1" parent="WIyWlLk6GJQsqaUBKTNV-1">
          <mxGeometry x="125" y="1390" width="232.5" height="60" as="geometry" />
        </mxCell>
        <mxCell id="8x2umwGvbLYaKxmgUbL3-53" style="edgeStyle=orthogonalEdgeStyle;rounded=0;orthogonalLoop=1;jettySize=auto;html=1;exitX=0.5;exitY=1;exitDx=0;exitDy=0;entryX=0.5;entryY=0;entryDx=0;entryDy=0;" edge="1" parent="WIyWlLk6GJQsqaUBKTNV-1" source="8x2umwGvbLYaKxmgUbL3-50" target="8x2umwGvbLYaKxmgUbL3-52">
          <mxGeometry relative="1" as="geometry" />
        </mxCell>
        <mxCell id="8x2umwGvbLYaKxmgUbL3-50" value="diaActual" style="shape=parallelogram;perimeter=parallelogramPerimeter;whiteSpace=wrap;html=1;fixedSize=1;" vertex="1" parent="WIyWlLk6GJQsqaUBKTNV-1">
          <mxGeometry x="141.25" y="1470" width="200" height="60" as="geometry" />
        </mxCell>
        <mxCell id="8x2umwGvbLYaKxmgUbL3-55" style="edgeStyle=orthogonalEdgeStyle;rounded=0;orthogonalLoop=1;jettySize=auto;html=1;exitX=0.5;exitY=1;exitDx=0;exitDy=0;entryX=0.5;entryY=0;entryDx=0;entryDy=0;" edge="1" parent="WIyWlLk6GJQsqaUBKTNV-1" source="8x2umwGvbLYaKxmgUbL3-52" target="8x2umwGvbLYaKxmgUbL3-54">
          <mxGeometry relative="1" as="geometry" />
        </mxCell>
        <mxCell id="8x2umwGvbLYaKxmgUbL3-52" value="Seleccionar matrizDiaActividad [fila][columna]=actividad" style="rounded=0;whiteSpace=wrap;html=1;" vertex="1" parent="WIyWlLk6GJQsqaUBKTNV-1">
          <mxGeometry x="125" y="1570" width="232.5" height="60" as="geometry" />
        </mxCell>
        <mxCell id="8x2umwGvbLYaKxmgUbL3-56" style="edgeStyle=orthogonalEdgeStyle;rounded=0;orthogonalLoop=1;jettySize=auto;html=1;exitX=0.5;exitY=1;exitDx=0;exitDy=0;" edge="1" parent="WIyWlLk6GJQsqaUBKTNV-1" source="8x2umwGvbLYaKxmgUbL3-54">
          <mxGeometry relative="1" as="geometry">
            <mxPoint x="241.5" y="1830" as="targetPoint" />
          </mxGeometry>
        </mxCell>
        <mxCell id="8x2umwGvbLYaKxmgUbL3-57" value="SI" style="edgeLabel;html=1;align=center;verticalAlign=middle;resizable=0;points=[];" vertex="1" connectable="0" parent="8x2umwGvbLYaKxmgUbL3-56">
          <mxGeometry x="-0.3298" y="-4" relative="1" as="geometry">
            <mxPoint x="8" as="offset" />
          </mxGeometry>
        </mxCell>
        <mxCell id="8x2umwGvbLYaKxmgUbL3-62" style="edgeStyle=orthogonalEdgeStyle;rounded=0;orthogonalLoop=1;jettySize=auto;html=1;exitX=1;exitY=0.5;exitDx=0;exitDy=0;" edge="1" parent="WIyWlLk6GJQsqaUBKTNV-1" source="8x2umwGvbLYaKxmgUbL3-54">
          <mxGeometry relative="1" as="geometry">
            <mxPoint x="442.5" y="1750" as="targetPoint" />
            <Array as="points">
              <mxPoint x="442.5" y="1720" />
            </Array>
          </mxGeometry>
        </mxCell>
        <mxCell id="8x2umwGvbLYaKxmgUbL3-63" value="NO" style="edgeLabel;html=1;align=center;verticalAlign=middle;resizable=0;points=[];" vertex="1" connectable="0" parent="8x2umwGvbLYaKxmgUbL3-62">
          <mxGeometry x="0.2192" y="1" relative="1" as="geometry">
            <mxPoint x="9" as="offset" />
          </mxGeometry>
        </mxCell>
        <mxCell id="8x2umwGvbLYaKxmgUbL3-54" value="La actividad es acorde con el clima y la estación?" style="rhombus;whiteSpace=wrap;html=1;" vertex="1" parent="WIyWlLk6GJQsqaUBKTNV-1">
          <mxGeometry x="146.25" y="1660" width="190" height="120" as="geometry" />
        </mxCell>
        <mxCell id="8x2umwGvbLYaKxmgUbL3-61" value="" style="edgeStyle=orthogonalEdgeStyle;rounded=0;orthogonalLoop=1;jettySize=auto;html=1;exitX=0.495;exitY=0.867;exitDx=0;exitDy=0;exitPerimeter=0;" edge="1" parent="WIyWlLk6GJQsqaUBKTNV-1" source="8x2umwGvbLYaKxmgUbL3-58" target="8x2umwGvbLYaKxmgUbL3-59">
          <mxGeometry relative="1" as="geometry" />
        </mxCell>
        <mxCell id="8x2umwGvbLYaKxmgUbL3-58" value="ropaAdecuada" style="strokeWidth=2;html=1;shape=mxgraph.flowchart.document2;whiteSpace=wrap;size=0.25;" vertex="1" parent="WIyWlLk6GJQsqaUBKTNV-1">
          <mxGeometry x="195" y="1830" width="100" height="60" as="geometry" />
        </mxCell>
        <mxCell id="8x2umwGvbLYaKxmgUbL3-59" value="Fin" style="strokeWidth=2;html=1;shape=mxgraph.flowchart.terminator;whiteSpace=wrap;" vertex="1" parent="WIyWlLk6GJQsqaUBKTNV-1">
          <mxGeometry x="195" y="1920" width="100" height="60" as="geometry" />
        </mxCell>
        <mxCell id="8x2umwGvbLYaKxmgUbL3-65" style="edgeStyle=orthogonalEdgeStyle;rounded=0;orthogonalLoop=1;jettySize=auto;html=1;exitX=0.5;exitY=1;exitDx=0;exitDy=0;" edge="1" parent="WIyWlLk6GJQsqaUBKTNV-1">
          <mxGeometry relative="1" as="geometry">
            <mxPoint x="242.5" y="1810" as="targetPoint" />
            <mxPoint x="428.75" y="1800" as="sourcePoint" />
            <Array as="points">
              <mxPoint x="428.5" y="1810" />
              <mxPoint x="252.5" y="1810" />
            </Array>
          </mxGeometry>
        </mxCell>
        <mxCell id="8x2umwGvbLYaKxmgUbL3-64" value="estacionAcorde" style="shape=parallelogram;perimeter=parallelogramPerimeter;whiteSpace=wrap;html=1;fixedSize=1;" vertex="1" parent="WIyWlLk6GJQsqaUBKTNV-1">
          <mxGeometry x="352.5" y="1750" width="172.5" height="50" as="geometry" />
        </mxCell>
        <mxCell id="8x2umwGvbLYaKxmgUbL3-68" style="edgeStyle=orthogonalEdgeStyle;rounded=0;orthogonalLoop=1;jettySize=auto;html=1;exitX=0.5;exitY=1;exitDx=0;exitDy=0;entryX=0.5;entryY=0;entryDx=0;entryDy=0;" edge="1" parent="WIyWlLk6GJQsqaUBKTNV-1" source="8x2umwGvbLYaKxmgUbL3-67" target="8x2umwGvbLYaKxmgUbL3-46">
          <mxGeometry relative="1" as="geometry" />
        </mxCell>
        <mxCell id="8x2umwGvbLYaKxmgUbL3-67" value="(temeperatura&amp;lt;x&amp;nbsp; &amp;amp;&amp;amp; condicionesClimaticas= frío)&amp;nbsp; entonces,&amp;nbsp;&lt;br&gt;estacion= invierno" style="rounded=0;whiteSpace=wrap;html=1;" vertex="1" parent="WIyWlLk6GJQsqaUBKTNV-1">
          <mxGeometry x="128.75" y="1220" width="232.5" height="60" as="geometry" />
        </mxCell>
        <mxCell id="8x2umwGvbLYaKxmgUbL3-69" value="A" style="ellipse;whiteSpace=wrap;html=1;aspect=fixed;" vertex="1" parent="WIyWlLk6GJQsqaUBKTNV-1">
          <mxGeometry x="221.25" y="1120" width="40" height="40" as="geometry" />
        </mxCell>
        <mxCell id="8x2umwGvbLYaKxmgUbL3-71" style="edgeStyle=orthogonalEdgeStyle;rounded=0;orthogonalLoop=1;jettySize=auto;html=1;exitX=0.5;exitY=1;exitDx=0;exitDy=0;entryX=0.5;entryY=0;entryDx=0;entryDy=0;" edge="1" parent="WIyWlLk6GJQsqaUBKTNV-1" source="8x2umwGvbLYaKxmgUbL3-70" target="8x2umwGvbLYaKxmgUbL3-67">
          <mxGeometry relative="1" as="geometry" />
        </mxCell>
        <mxCell id="8x2umwGvbLYaKxmgUbL3-70" value="A" style="ellipse;whiteSpace=wrap;html=1;aspect=fixed;" vertex="1" parent="WIyWlLk6GJQsqaUBKTNV-1">
          <mxGeometry x="225" y="1169" width="40" height="40" as="geometry" />
        </mxCell>
      </root>
    </mxGraphModel>
  </diagram>
</mxfile>
